<svg width="1024" height="806.04" viewBox="0 0 1024 806.04" xmlns="http://www.w3.org/2000/svg" xmlns:xlink="http://www.w3.org/1999/xlink" id="f35ab9f9-34d5-448a-b11b-d3b80d8dd40d" overflow="hidden"><path d="M618.37 124C625.13 168.56 606.37 208.37 606.37 208.37 606.37 208.37 576.6 175.94 569.84 131.37 563.08 86.8 581.84 47 581.84 47 581.84 47 611.61 79.42 618.37 124Z" fill="#4285F4" transform="translate(-88 -46.98)"/><path d="M744.07 195C768.6 194.73 788.63 207.89 788.63 207.89 788.63 207.89 768.89 221.48 744.36 221.74 719.83 222 699.8 208.85 699.8 208.85 699.8 208.85 719.54 195.27 744.07 195Z" fill="#4285F4" transform="translate(-88 -46.98)"/><path d="M675.09 127.26C652.26 152.35 647.43 185.14 647.43 185.14 647.43 185.14 679.61 177.24 702.43 152.14 725.25 127.04 730.1 94.27 730.1 94.27 730.1 94.27 697.92 102.17 675.09 127.26Z" fill="#46455B" transform="translate(-88 -46.98)"/><ellipse cx="512" cy="782.54" rx="512" ry="23.5" fill="#4285F4" opacity="0.1"/><path d="M208.3 545.74 358.94 545.74 358.94 775.33 196 775.33 196 545.74 208.3 545.74" fill="#EEEFF0"/><rect x="216.57" y="578.66" width="121.79" height="26.33" fill="#4285F4"/><rect x="227.27" y="637.5" width="100.4" height="1.65" fill="#373E46"/><rect x="227.27" y="646.55" width="100.4" height="1.65" fill="#373E46"/><rect x="227.27" y="655.6" width="100.4" height="1.65" fill="#373E46"/><rect x="227.27" y="664.65" width="100.4" height="1.65" fill="#373E46"/><rect x="227.27" y="673.7" width="100.4" height="1.65" fill="#373E46"/><rect x="227.27" y="682.76" width="100.4" height="1.65" fill="#373E46"/><rect x="227.27" y="691.81" width="100.4" height="1.65" fill="#373E46"/><rect x="227.27" y="700.86" width="100.4" height="1.65" fill="#373E46"/><rect x="227.27" y="709.91" width="100.4" height="1.65" fill="#373E46"/><rect x="227.27" y="718.96" width="100.4" height="1.65" fill="#373E46"/><rect x="227.27" y="728.02" width="100.4" height="1.65" fill="#373E46"/><path d="M442.83 545.74 593.47 545.74 593.47 775.33 430.53 775.33 430.53 545.74 442.83 545.74" fill="#EEEFF0"/><rect x="451.1" y="578.66" width="121.79" height="26.33" fill="#4285F4"/><rect x="461.8" y="637.5" width="100.4" height="1.65" fill="#373E46"/><rect x="461.8" y="646.55" width="100.4" height="1.65" fill="#373E46"/><rect x="461.8" y="655.6" width="100.4" height="1.65" fill="#373E46"/><rect x="461.8" y="664.65" width="100.4" height="1.65" fill="#373E46"/><rect x="461.8" y="673.7" width="100.4" height="1.65" fill="#373E46"/><rect x="461.8" y="682.76" width="100.4" height="1.65" fill="#373E46"/><rect x="461.8" y="691.81" width="100.4" height="1.65" fill="#373E46"/><rect x="461.8" y="700.86" width="100.4" height="1.65" fill="#373E46"/><rect x="461.8" y="709.91" width="100.4" height="1.65" fill="#373E46"/><rect x="461.8" y="718.96" width="100.4" height="1.65" fill="#373E46"/><rect x="461.8" y="728.02" width="100.4" height="1.65" fill="#373E46"/><path d="M677.36 545.74 828 545.74 828 775.33 665.06 775.33 665.06 545.74 677.36 545.74" fill="#EEEFF0"/><rect x="685.64" y="578.66" width="121.79" height="26.33" fill="#4285F4"/><rect x="696.33" y="637.5" width="100.4" height="1.65" fill="#373E46"/><rect x="696.33" y="646.55" width="100.4" height="1.65" fill="#373E46"/><rect x="696.33" y="655.6" width="100.4" height="1.65" fill="#373E46"/><rect x="696.33" y="664.65" width="100.4" height="1.65" fill="#373E46"/><rect x="696.33" y="673.7" width="100.4" height="1.65" fill="#373E46"/><rect x="696.33" y="682.76" width="100.4" height="1.65" fill="#373E46"/><rect x="696.33" y="691.81" width="100.4" height="1.65" fill="#373E46"/><rect x="696.33" y="700.86" width="100.4" height="1.65" fill="#373E46"/><rect x="696.33" y="709.91" width="100.4" height="1.65" fill="#373E46"/><rect x="696.33" y="718.96" width="100.4" height="1.65" fill="#373E46"/><rect x="696.33" y="728.02" width="100.4" height="1.65" fill="#373E46"/><path d="M512 545.74 512 387.74 277.47 545.74" stroke="#373E46" stroke-miterlimit="10" fill="none"/><line x1="746.53" y1="545.74" x2="512" y2="387.74" stroke="#373E46" stroke-miterlimit="10" fill="none"/><g opacity="0.1"><path d="M399.93 87.54 380 87.54 380 459.54 644 459.54 644 87.54 399.93 87.54Z"/></g><path d="M404.45 95.04 638.68 95.04 638.68 452.04 385.32 452.04 385.32 95.04 404.45 95.04" fill="#FFFFFF"/><rect x="417.31" y="146.22" width="189.38" height="40.95" fill="#4285F4"/><rect x="433.95" y="237.71" width="156.11" height="2.56" fill="#373E46"/><rect x="433.95" y="251.78" width="156.11" height="2.56" fill="#373E46"/><rect x="433.95" y="265.86" width="156.11" height="2.56" fill="#373E46"/><rect x="433.95" y="279.93" width="156.11" height="2.56" fill="#373E46"/><rect x="433.95" y="294.01" width="156.11" height="2.56" fill="#373E46"/><rect x="433.95" y="308.09" width="156.11" height="2.56" fill="#373E46"/><rect x="433.95" y="322.16" width="156.11" height="2.56" fill="#373E46"/><rect x="433.95" y="336.24" width="156.11" height="2.56" fill="#373E46"/><rect x="433.95" y="350.31" width="156.11" height="2.56" fill="#373E46"/><rect x="433.95" y="364.39" width="156.11" height="2.56" fill="#373E46"/><rect x="433.95" y="378.46" width="156.11" height="2.56" fill="#373E46"/><path d="M220.64 748.89C220.81 752.89 218.28 756.4 215.87 759.57 214.784 761.055 213.805 762.616 212.94 764.24 210.32 768.9 204.69 771.12 201.64 775.52 200.91 776.59 200.34 777.76 199.69 778.89 197.482 782.764 194.708 786.286 191.46 789.34L186 794.5C184.343 795.871 182.953 797.535 181.9 799.41 180.985 801.718 180.622 804.207 180.84 806.68L180.84 807.5C180.84 807.69 180.84 807.87 180.84 808.06 180.845 811.087 181.18 814.105 181.84 817.06 182.2 817.964 182.256 818.961 182 819.9 181.489 820.827 180.604 821.49 179.57 821.72 178.518 822.159 177.35 822.237 176.25 821.94 175.219 821.466 174.355 820.693 173.77 819.72 170.55 815.3 169.25 809.83 167.33 804.72 167.014 803.603 167.294 802.403 168.07 801.54 168.834 800.7 169.674 799.934 170.58 799.25 174.38 795.93 176.15 790.92 177.58 786.09 179.01 781.26 180.43 776.21 183.75 772.42 185.9 769.96 188.75 768.19 191.13 765.98 197.13 760.44 200.13 752.37 201.65 744.37 203.488 744.021 205.374 743.997 207.22 744.3L217.04 745.6C218.121 745.616 219.159 746.025 219.96 746.75 220.414 747.37 220.652 748.122 220.64 748.89Z" fill="#EFB7B9" transform="translate(-88 -46.98)"/><path d="M262.57 757C262.364 758.483 261.842 759.905 261.04 761.17 259.857 762.989 258.519 764.702 257.04 766.29 253.29 770.6 252.65 776.73 250.26 781.92 249.49 783.6 248.52 785.19 247.74 786.92 245.68 791.33 244.92 796.18 244.47 801.06 244.42 801.68 244.36 802.31 244.32 802.94 244.28 803.57 244.2 804.49 244.14 805.26 243.99 807.26 243.86 809.45 244.72 811.26 245.17 812.26 245.89 813 245.92 814.05 244.44 815.49 241.92 815.32 240.2 814.16 238.562 812.879 237.306 811.174 236.57 809.23 234.987 805.779 233.841 802.145 233.16 798.41 232.9 797 232.78 795.33 233.8 794.31 234.368 793.863 234.966 793.455 235.59 793.09 236.84 792.09 237.2 790.39 237.48 788.82 238.44 783.427 239.403 778.037 240.37 772.65 240.582 771.329 240.866 770.02 241.22 768.73 242.04 765.84 243.29 762.62 245.63 760.73 246.244 760.163 246.523 759.321 246.37 758.5 246.202 757.694 245.89 756.925 245.45 756.23 243.71 753.11 241.62 749.97 238.45 748.23 241.715 745.498 245.44 743.368 249.45 741.94 250.154 741.606 250.935 741.471 251.71 741.55 252.126 741.641 252.525 741.8 252.89 742.02 254.979 743.341 256.806 745.036 258.28 747.02 260.61 749.94 263 753.31 262.57 757Z" fill="#EFB7B9" transform="translate(-88 -46.98)"/><path d="M186.14 820.77C185.167 819.845 184.04 819.097 182.81 818.56 182.536 818.394 182.229 818.288 181.91 818.25 181.14 818.25 180.56 818.91 179.91 819.25 178.818 819.84 177.502 819.84 176.41 819.25 175.347 818.653 174.452 817.797 173.81 816.76 172.41 814.69 172.13 812.63 171.55 810.36L177.66 809.21C178.771 808.949 179.843 808.546 180.85 808.01 180.85 807.82 180.85 807.64 180.85 807.45L180.85 806.63C179.72 806.96 177.33 808.07 176.76 808.2 174.921 808.617 173.057 808.914 171.18 809.09 170.89 808.51 170.47 808.01 170.18 807.44 169.493 806.305 169.057 805.037 168.9 803.72 168.887 803.197 168.786 802.679 168.6 802.19 168.401 801.69 167.895 801.384 167.36 801.44 167.16 801.491 166.973 801.583 166.81 801.71 165.097 802.896 163.769 804.558 162.99 806.49 161.85 809.35 161.99 812.55 161.56 815.6 161.21 817.89 160.51 820.16 160.63 822.47 160.628 822.594 160.662 822.716 160.73 822.82 160.833 822.92 160.967 822.984 161.11 823 162.38 823.28 163.85 823.53 164.88 822.74 165.91 821.95 166.06 820.45 166.26 819.15 166.525 817.416 167.048 815.73 167.81 814.15 169.387 816.081 170.211 818.518 170.13 821.01 170.13 822.38 169.97 823.95 170.91 824.95 171.371 825.393 171.935 825.716 172.55 825.89 173.805 826.324 175.108 826.606 176.43 826.73 178.833 826.871 181.244 826.747 183.62 826.36 184.37 826.27 185.13 826.17 185.87 826.01 186.251 825.943 186.613 825.793 186.93 825.57 187.272 825.251 187.491 824.823 187.55 824.36 187.654 823.011 187.135 821.688 186.14 820.77Z" fill="#464353" transform="translate(-88 -46.98)"/><path d="M249.12 813.12C248.525 812.588 247.85 812.152 247.12 811.83 246.536 811.468 245.875 811.249 245.19 811.19 244.42 811.267 243.672 811.495 242.99 811.86 242.295 812.224 241.474 812.261 240.75 811.96 240.216 811.57 239.826 811.015 239.64 810.38 238.78 808.38 238.14 806.2 237.39 804.12 237.564 803.842 237.824 803.628 238.13 803.51 238.363 803.436 238.607 803.406 238.85 803.42 240.662 803.475 242.473 803.297 244.24 802.89 244.24 802.26 244.34 801.63 244.39 801.01 243.124 800.891 241.848 801 240.62 801.33 239.771 801.658 238.857 801.785 237.95 801.7 237.33 801.57 236.74 801.19 236.14 801.11 235.86 800.58 235.55 800.11 235.25 799.55 234.5 798.22 234.25 796.67 233.53 795.37 233.301 794.919 232.854 794.62 232.35 794.58 231.815 794.652 231.332 794.937 231.01 795.37 229.715 796.532 228.644 797.922 227.85 799.47 227.553 800.187 227.325 800.93 227.17 801.69 226.17 805.95 225.69 810.315 225.74 814.69 226.847 815.044 228.016 815.156 229.17 815.02 229.763 812.073 230.487 809.157 231.34 806.27 231.355 806.162 231.413 806.065 231.5 806 231.69 805.9 231.88 806.1 231.99 806.28 233.034 807.834 233.878 809.514 234.5 811.28 234.751 812.569 235.186 813.815 235.79 814.98 236.571 816.048 237.699 816.811 238.98 817.14 240.255 817.462 241.565 817.63 242.88 817.64L244.88 817.74C245.936 817.866 247.006 817.785 248.03 817.5 249.078 817.197 249.856 816.317 250.03 815.24 250.049 814.435 249.717 813.661 249.12 813.12Z" fill="#464353" transform="translate(-88 -46.98)"/><path d="M258.28 745.53C257.4 746.274 256.33 746.759 255.19 746.93L251.8 747.76C251.407 747.787 251.043 747.979 250.8 748.29 250.61 748.65 250.74 749.09 250.65 749.48 250.614 749.635 250.542 749.779 250.44 749.9 249.959 750.325 249.332 750.548 248.69 750.52 248.132 750.5 247.576 750.584 247.05 750.77 246.83 750.864 246.64 751.016 246.5 751.21 246.33 751.46 246.25 751.77 246.07 752 245.764 752.334 245.35 752.55 244.9 752.61 244.436 752.718 243.965 752.792 243.49 752.83 241.607 752.998 239.713 752.652 238.01 751.83 237.612 751.55 237.122 751.432 236.64 751.5 236.359 751.603 236.119 751.796 235.96 752.05 235.785 752.32 235.594 752.581 235.39 752.83 234.52 753.77 233 753.52 231.75 753.26 230.97 753.09 230.19 752.95 229.41 752.82 224.714 752.171 219.98 751.836 215.24 751.82 209.09 751.63 202.95 751.46 197.01 750.01 195.71 749.7 194.14 749.01 194.21 747.62 194.21 746.86 194.85 746.21 194.85 745.45 194.85 744.16 193.26 743.45 191.99 743.25 192.45 736.17 196.7 729.98 198.91 723.25 199.46 721.58 199.91 719.87 200.49 718.25 203.18 710.81 209.1 705.09 214.02 698.89 214.777 698.023 215.398 697.045 215.86 695.99 216.282 694.729 216.501 693.409 216.51 692.08L216.78 687.41C223.988 686.914 231.229 687.364 238.32 688.75 238.789 688.802 239.225 689.018 239.55 689.36 239.702 689.609 239.794 689.89 239.82 690.18 240.1 691.88 240.29 693.6 240.4 695.32 240.408 695.698 240.461 696.075 240.56 696.44 240.752 696.901 241.015 697.33 241.34 697.71 245.51 703 248 709.47 250 716 252 722.53 253.59 729.17 256.11 735.51 256.97 737.7 258.11 740.16 258.33 742.51 259.148 743.359 259.125 744.709 258.28 745.53Z" fill="#464353" transform="translate(-88 -46.98)"/><path d="M229.45 752.79C224.754 752.141 220.02 751.806 215.28 751.79L215.67 738.64C215.76 735.73 215.85 732.81 216.2 729.92 216.69 725.81 217.69 721.77 218.2 717.67 218.485 715.314 218.615 712.943 218.59 710.57 218.451 708.162 218.518 705.747 218.79 703.35 219.12 701.35 219.97 698.62 221.79 697.55 223 699.2 221.14 703.83 220.93 705.81 220.48 709.94 221.59 714.05 222.55 718.08 223.7 722.92 224.64 727.81 225.55 732.7 226.863 739.38 228.163 746.077 229.45 752.79Z" opacity="0.1" transform="translate(-88 -46.98)"/><path d="M243.53 752.83C241.647 752.998 239.753 752.652 238.05 751.83 237.652 751.55 237.162 751.432 236.68 751.5 236.399 751.603 236.159 751.796 236 752.05 234.39 744.41 234.48 736.45 233.2 728.73 232.75 725.97 232.12 723.16 232.65 720.43 233.22 717.5 235.07 714.96 235.79 712.07 236.173 710.159 236.308 708.206 236.19 706.26 236.093 704.53 235.673 702.834 234.95 701.26 236.64 701.54 238.02 703.2 238.7 704.7 239.432 706.577 239.806 708.575 239.8 710.59 240.07 715.45 240.11 720.3 240.04 725.16 239.95 727.424 240 729.692 240.19 731.95 240.44 734.18 240.99 736.36 241.19 738.59 241.4 741.27 241.09 744.01 241.74 746.59 242.24 748.67 243.38 750.77 243.53 752.83Z" opacity="0.1" transform="translate(-88 -46.98)"/><path d="M250.48 749.9C249.999 750.326 249.372 750.548 248.73 750.52 248.172 750.5 247.616 750.584 247.09 750.77L244.27 733.35C243.881 731.213 243.611 729.057 243.46 726.89 243.34 724.38 243.53 721.89 243.36 719.36 243.043 716.293 242.465 713.258 241.63 710.29 241.19 708.52 239.19 703.22 240.31 701.72 242.06 702.85 243.13 705.27 243.72 707.21 244.333 709.453 244.721 711.751 244.88 714.07 245.32 718.537 245.767 723.013 246.22 727.5 246.96 734.94 247.73 742.5 250.32 749.5 250.38 749.62 250.43 749.76 250.48 749.9Z" opacity="0.1" transform="translate(-88 -46.98)"/><path d="M265.22 667.45C266.47 666.39 267.73 665.32 268.89 664.15 270.514 662.424 272.014 660.586 273.38 658.65 274.912 656.72 276.186 654.599 277.17 652.34 278.17 649.71 278.51 646.72 280.29 644.54 280.495 644.258 280.776 644.039 281.1 643.91 282.1 643.59 282.87 644.91 283.1 645.91 284.05 651.06 281.79 656.2 279.58 660.91 278.942 662.524 278.006 664.003 276.82 665.27 276.127 665.865 275.403 666.423 274.65 666.94 273.539 667.843 272.514 668.847 271.59 669.94 270.01 671.74 268.49 673.61 267.06 675.54 265.388 678.009 263.533 680.349 261.51 682.54 259.472 684.738 256.778 686.219 253.83 686.76 254.67 686.64 254.39 681.7 254.3 681.08 254.17 680.17 253.55 679.08 253.53 678.23 253.53 677.15 253.95 676.99 254.85 676.23Z" fill="#EFB7B9" transform="translate(-88 -46.98)"/><path d="M265.22 667.45C266.47 666.39 267.73 665.32 268.89 664.15 270.514 662.424 272.014 660.586 273.38 658.65 274.912 656.72 276.186 654.599 277.17 652.34 278.17 649.71 278.51 646.72 280.29 644.54 280.495 644.258 280.776 644.039 281.1 643.91 282.1 643.59 282.87 644.91 283.1 645.91 284.05 651.06 281.79 656.2 279.58 660.91 278.942 662.524 278.006 664.003 276.82 665.27 276.127 665.865 275.403 666.423 274.65 666.94 273.539 667.843 272.514 668.847 271.59 669.94 270.01 671.74 268.49 673.61 267.06 675.54 265.388 678.009 263.533 680.349 261.51 682.54 259.472 684.738 256.778 686.219 253.83 686.76 254.67 686.64 254.39 681.7 254.3 681.08 254.17 680.17 253.55 679.08 253.53 678.23 253.53 677.15 253.95 676.99 254.85 676.23Z" opacity="0.1" transform="translate(-88 -46.98)"/><path d="M229.88 636.29C229.88 636.29 227 650.58 223.69 653 220.38 655.42 241.78 658.23 241.78 658.23 241.78 658.23 242.26 646.81 247.97 641.57 253.68 636.33 229.88 636.29 229.88 636.29Z" fill="#EFB7B9" transform="translate(-88 -46.98)"/><path d="M224.19 651.55C222.77 651.758 221.472 652.467 220.53 653.55 218.29 655.97 217.84 659.65 218.61 662.86 219.557 666.03 221.079 669 223.1 671.62 225.425 675.251 228.295 678.503 231.61 681.26 233.459 682.598 235.379 683.837 237.36 684.97 240.647 686.991 243.806 689.211 246.82 691.62 247.485 692.214 248.241 692.697 249.06 693.05 249.765 693.269 250.503 693.364 251.24 693.33 253.741 693.308 256.206 692.734 258.46 691.65 258.671 691.57 258.858 691.435 259 691.26 259.161 690.887 259.161 690.464 259 690.09 257.65 684.67 260.24 678.51 257.67 673.55 254.88 674.45 251.81 675.43 249.02 676.34 248.591 676.509 248.131 676.587 247.67 676.57 247.115 676.454 246.607 676.176 246.21 675.77 243.21 673.15 241.27 669.5 239.53 665.9 237.79 662.3 236.1 658.57 233.38 655.64 230.66 652.71 228.17 651.13 224.19 651.55Z" fill="#4285F4" transform="translate(-88 -46.98)"/><path d="M224.19 651.55C222.77 651.758 221.472 652.467 220.53 653.55 218.29 655.97 217.84 659.65 218.61 662.86 219.557 666.03 221.079 669 223.1 671.62 225.425 675.251 228.295 678.503 231.61 681.26 233.459 682.598 235.379 683.837 237.36 684.97 240.647 686.991 243.806 689.211 246.82 691.62 247.485 692.214 248.241 692.697 249.06 693.05 249.765 693.269 250.503 693.364 251.24 693.33 253.741 693.308 256.206 692.734 258.46 691.65 258.671 691.57 258.858 691.435 259 691.26 259.161 690.887 259.161 690.464 259 690.09 257.65 684.67 260.24 678.51 257.67 673.55 254.88 674.45 251.81 675.43 249.02 676.34 248.591 676.509 248.131 676.587 247.67 676.57 247.115 676.454 246.607 676.176 246.21 675.77 243.21 673.15 241.27 669.5 239.53 665.9 237.79 662.3 236.1 658.57 233.38 655.64 230.66 652.71 228.17 651.13 224.19 651.55Z" opacity="0.1" transform="translate(-88 -46.98)"/><circle cx="153.07" cy="585.74" r="14.28" fill="#EFB7B9"/><path d="M246.77 673.83 246.77 673.89C245.94 675.42 244.71 676.71 243.86 678.23 242.98 680.003 242.383 681.903 242.09 683.86 241.82 685.16 241.58 686.46 241.36 687.77 241.14 689.08 240.92 690.42 240.72 691.77 236.41 690.31 231.63 692.77 227.16 691.87 225.851 691.472 224.514 691.171 223.16 690.97 222.16 690.97 221.16 691.15 220.16 691.06 218.51 690.9 216.87 689.86 215.29 690.39 214.59 690.63 213.72 691.13 213.21 690.58 213.094 690.434 213.006 690.268 212.95 690.09 212.432 689.001 212.247 687.783 212.42 686.59 212.794 685.637 213.295 684.739 213.91 683.92 214.674 682.311 215.07 680.552 215.07 678.77 215.36 674.18 215.35 669.55 216.07 665.01 216.79 660.47 218.41 655.95 221.48 652.52 222.897 650.737 224.938 649.558 227.19 649.22 235.45 648.55 242.12 653.1 245.73 660.33 247.86 664.51 249 669.68 246.77 673.83Z" fill="#4285F4" transform="translate(-88 -46.98)"/><path d="M270.93 669.36C272.19 668.29 273.45 667.23 274.6 666.05 276.227 664.33 277.727 662.495 279.09 660.56 280.629 658.629 281.907 656.505 282.89 654.24 283.89 651.62 284.22 648.63 286.01 646.45 286.208 646.165 286.487 645.946 286.81 645.82 287.81 645.5 288.58 646.82 288.81 647.82 289.81 652.97 287.49 658.12 285.28 662.82 284.649 664.435 283.716 665.915 282.53 667.18 281.86 667.8 281.08 668.29 280.36 668.84 279.244 669.737 278.219 670.742 277.3 671.84 275.713 673.653 274.2 675.52 272.76 677.44 271.089 679.907 269.237 682.247 267.22 684.44 265.176 686.638 262.48 688.121 259.53 688.67 260.38 688.55 260.1 683.6 260.01 682.98 259.701 682.048 259.444 681.1 259.24 680.14 259.24 679.05 259.66 678.89 260.55 678.14Z" fill="#EFB7B9" transform="translate(-88 -46.98)"/><path d="M245.34 674.31 245.34 674.37C244.52 675.9 243.28 677.18 242.43 678.71 241.548 680.482 240.951 682.382 240.66 684.34 240.4 685.64 240.15 686.94 239.93 688.25 238.204 687.269 236.534 686.19 234.93 685.02 231.609 682.266 228.735 679.014 226.41 675.38 224.389 672.76 222.867 669.79 221.92 666.62 221.15 663.41 221.6 659.73 223.85 657.31 224.794 656.244 226.089 655.551 227.5 655.36 231.5 654.93 234 656.47 236.72 659.36 239.44 662.25 241.13 666.01 242.87 669.62 243.65 671.23 244.44 672.81 245.34 674.31Z" opacity="0.1" transform="translate(-88 -46.98)"/><path d="M229.9 653.45C228.484 653.66 227.189 654.369 226.25 655.45 224 657.87 223.55 661.55 224.33 664.76 225.11 667.97 226.93 670.76 228.81 673.52 231.14 677.15 234.014 680.401 237.33 683.16 239.176 684.495 241.092 685.73 243.07 686.86 246.358 688.878 249.518 691.099 252.53 693.51 253.192 694.108 253.949 694.592 254.77 694.94 255.478 695.162 256.219 695.26 256.96 695.23 259.461 695.198 261.925 694.621 264.18 693.54 264.392 693.462 264.579 693.327 264.72 693.15 264.88 692.78 264.88 692.36 264.72 691.99 263.38 686.56 265.97 680.4 263.4 675.44L254.74 678.23C254.312 678.404 253.851 678.483 253.39 678.46 252.839 678.339 252.333 678.065 251.93 677.67 248.93 675.05 246.99 671.4 245.25 667.79 243.51 664.18 241.83 660.47 239.1 657.54 236.37 654.61 233.88 653 229.9 653.45Z" fill="#4285F4" transform="translate(-88 -46.98)"/><path d="M250.3 622.74C251.69 621.17 251.39 618.62 250.18 616.91 248.834 615.277 247.12 613.985 245.18 613.14 242.23 611.57 238.84 610.06 235.67 611.14 234.455 611.631 233.29 612.237 232.19 612.95 230.09 614.12 227.77 614.86 225.63 615.95 223.406 616.929 221.594 618.655 220.51 620.83 219.61 623 219.89 625.45 220.13 627.83 220.588 631.444 220.612 635.1 220.2 638.72 219.776 642.359 218.373 645.815 216.14 648.72 214.53 650.72 212.4 652.34 211.43 654.72 210.956 656.079 210.69 657.502 210.64 658.94L210.12 665.08C209.92 667.53 209.61 670.2 207.84 671.91 211.631 671.517 215.097 669.596 217.44 666.59 219.25 664.59 221.13 662.47 221.67 659.83 222.08 657.83 221.74 655.62 222.94 654.01 224.35 652.11 227.36 652.09 229.36 653.35 231.36 654.61 232.59 656.77 233.66 658.88 234.73 660.99 235.8 663.2 237.66 664.69 239.174 665.844 240.957 666.594 242.84 666.87 244.089 667.241 245.438 667.055 246.54 666.36 247.91 665.26 247.77 663.15 247.33 661.45 246.74 659.2 245.83 656.86 246.47 654.61 246.68 653.87 247.05 653.17 247.28 652.43 247.56 651.353 247.691 650.243 247.67 649.13 247.8 643.55 248.06 637.54 246.25 632.13 245.67 630.41 244.11 628.77 244.91 626.91 245.92 624.55 248.79 624.47 250.3 622.74Z" fill="#464353" transform="translate(-88 -46.98)"/><g opacity="0.1"><path d="M220.5 632.3C220.575 629.662 220.465 627.022 220.17 624.4 220.17 623.89 220.06 623.4 220.02 622.85 219.891 624.481 219.941 626.12 220.17 627.74 220.32 629.25 220.44 630.77 220.5 632.3Z" transform="translate(-88 -46.98)"/><path d="M246.56 662.93C245.456 663.62 244.11 663.806 242.86 663.44 240.977 663.164 239.194 662.414 237.68 661.26 235.84 659.76 234.78 657.55 233.68 655.45 232.58 653.35 231.38 651.17 229.38 649.92 227.38 648.67 224.38 648.68 222.96 650.58 221.76 652.19 222.1 654.43 221.69 656.4 221.15 659.04 219.27 661.17 217.46 663.16 216.545 664.248 215.508 665.228 214.37 666.08 212.948 666.985 211.382 667.641 209.74 668.02 209.512 669.445 208.857 670.767 207.86 671.81 211.651 671.417 215.117 669.496 217.46 666.49 219.27 664.49 221.15 662.37 221.69 659.73 222.1 657.73 221.76 655.52 222.96 653.91 224.37 652.01 227.38 651.99 229.38 653.25 231.38 654.51 232.61 656.67 233.68 658.78 234.75 660.89 235.82 663.1 237.68 664.59 239.194 665.744 240.977 666.494 242.86 666.77 244.109 667.141 245.458 666.955 246.56 666.26 247.84 665.26 247.8 663.26 247.43 661.68 247.259 662.168 246.958 662.6 246.56 662.93Z" transform="translate(-88 -46.98)"/><path d="M250.3 619.41C248.79 621.13 245.92 621.22 244.93 623.51 244.584 624.456 244.675 625.508 245.18 626.38 246.33 624.53 248.9 624.38 250.3 622.74 251.267 621.505 251.507 619.849 250.93 618.39 250.782 618.765 250.569 619.11 250.3 619.41Z" transform="translate(-88 -46.98)"/><path d="M247.69 645.7C247.712 646.813 247.58 647.923 247.3 649 247.07 649.74 246.7 650.43 246.49 651.18 246.22 652.307 246.22 653.483 246.49 654.61L246.49 654.51C246.7 653.77 247.07 653.07 247.3 652.33 247.58 651.253 247.712 650.143 247.69 649.03 247.74 646.81 247.81 644.53 247.77 642.24 247.75 643.4 247.72 644.56 247.69 645.7Z" transform="translate(-88 -46.98)"/></g><path d="M916.12 718C916.12 768.24 947.64 808.9 986.59 808.9" fill="#46455B" transform="translate(-88 -46.98)"/><path d="M986.59 808.91C986.59 758.1 1021.77 716.99 1065.24 716.99" fill="#4285F4" transform="translate(-88 -46.98)"/><path d="M941.66 722.56C941.66 770.29 961.76 808.91 986.59 808.91" fill="#4285F4" transform="translate(-88 -46.98)"/><path d="M986.59 808.91C986.59 743.99 1027.25 691.45 1077.49 691.45" fill="#46455B" transform="translate(-88 -46.98)"/><ellipse cx="895.54" cy="776.33" rx="17.52" ry="2.96" fill="#4285F4" opacity="0.1"/><path d="M971.77 809.55C971.77 809.55 981.77 809.24 984.77 807.1 987.77 804.96 1000.14 802.39 1000.89 805.83 1001.64 809.27 1015.89 822.94 1004.62 823.03 993.35 823.12 978.4 821.27 975.4 819.44 972.4 817.61 971.77 809.55 971.77 809.55Z" fill="#A8A8A8" transform="translate(-88 -46.98)"/><path d="M1004.83 821.83C993.55 821.92 978.62 820.07 975.61 818.24 973.32 816.85 972.41 811.84 972.1 809.54L971.77 809.54C971.77 809.54 972.4 817.6 975.41 819.43 978.42 821.26 993.35 823.11 1004.63 823.02 1007.89 823.02 1009.01 821.83 1008.95 820.12 1008.5 821.16 1007.26 821.81 1004.83 821.83Z" opacity="0.2" transform="translate(-88 -46.98)"/></svg>